<?xml version="1.0" encoding="UTF-8"?>
<svg id="text" xmlns="http://www.w3.org/2000/svg" version="1.1" viewBox="0 0 820.2 1000">
  <!-- Generator: Adobe Illustrator 29.8.2, SVG Export Plug-In . SVG Version: 2.1.1 Build 3)  -->
  <defs>
    <style>
      .st0 {
        fill: #fff;
      }
    </style>
  </defs>
  <path class="st0" d="M303.1,98c-10.1-12.7-25.8-20.1-41.4-23.5s-34.3-3.6-51.1,0-32.6,11.4-46,21.9-21.5,20.6-29,33.4-11.4,23.2-14.7,35.7c-2.5,9.4-4.2,19.2-4.8,29-1,16.9,3.4,34,13.4,47.8,4.4,6,9.6,11.2,15.5,15.7s13.8,8,21.3,10.8c20,7.5,41.5,10,62.7,7,15.9-2.2,31.9-7.6,45.1-17s3.4-2.3,4.7-4,2-2.5,2.5-3.9l-.8,1.3.2-.2c2.8-2.6-1.4-6.8-4.2-4.2l-.2.2,1.3-.8c-1.4.4-3,1.4-4.3,2.1s-1.5.8-1.6,1.2c0,0,.8-.6.2-.2s-.3.2-.4.3c-.7.5-1.3,1-2,1.5-2.8,2-5.8,3.7-8.8,5.3s-3.3,1.6-4.9,2.4-.8.3-1.1.5-.4.2-.6.3c.8-.4.1,0,0,0-.9.4-1.9.8-2.8,1.1-3.8,1.4-7.7,2.7-11.6,3.7s-4.2,1-6.3,1.4-2.2.4-3.2.6-1,.2-1.5.2-.6,0-.9.1-1.2.2-.8.1-.3,0-.4,0c-.3,0-.6,0-.9.1-.5,0-1,.1-1.5.2-1.2.1-2.4.2-3.6.3-2.4.2-4.8.3-7.2.3-4.9,0-9.8-.2-14.7-.7s-1.1-.1-1.7-.2-.7,0-1-.1c-.7,0,.5,0-.2,0-1.3-.2-2.7-.4-4-.6-2.6-.5-5.2-1-7.7-1.6-9.7-2.3-19.4-5.6-28.1-10.4s-4.8-3-7.1-4.6-.1-.3.2.2c0-.1-.3-.2-.4-.3-.3-.2-.6-.5-.9-.7-.6-.5-1.3-1.1-1.9-1.6-1.2-1.1-2.4-2.2-3.6-3.4s-2.4-2.5-3.5-3.8-1.1-1.4-1.7-2.1c.5.7,0-.1-.3-.4-.3-.4-.6-.8-.9-1.2-2.2-3.1-4.2-6.5-5.9-10s-.8-1.7-1.2-2.6c.4.9-.2-.6-.3-.8-.2-.6-.5-1.2-.7-1.8-.7-2-1.4-4-1.9-6s-1-4.3-1.4-6.5-.2-1-.2-1.5c.1.7-.1-.9-.1-1-.1-1.2-.2-2.5-.3-3.7-.3-5.2,0-10.4.5-15.5s.2-2.1.4-3.2-.1,1,0,0,0-.5.1-.8c0-.6.2-1.3.3-1.9.4-2.4.8-4.9,1.3-7.3,1.1-5.5,2.6-10.9,4.3-16.2s2-5.8,3.1-8.6.6-1.4.8-2-.3.7,0,.2.2-.4.3-.6c.2-.4.3-.8.5-1.2.6-1.5,1.3-2.9,2-4.3,2.9-6,6.3-11.8,10.2-17.3s.9-1.3,1.4-2,.5-.7.8-1,.2-.3.3-.5.6-.8.3-.4.5-.6.6-.8c.2-.3.5-.6.7-.9.6-.7,1.2-1.4,1.8-2.2,2.4-2.8,4.9-5.5,7.5-8s5.5-5.1,8.5-7.4.3-.3.5-.4c-.5.4,0,0,.2-.1.4-.3.8-.6,1.2-.9.8-.6,1.6-1.2,2.4-1.7,1.6-1.1,3.3-2.2,4.9-3.3,7.3-4.6,14.9-8.2,22.7-11s7.2-2.3,10.9-3.2,3.9-.8,5.8-1.2,2-.3,3-.5,1.3-.2.8-.1c.6,0,1.1-.1,1.7-.2,8.3-1,16.7-1.1,25.1-.4s15.8,2.1,23.5,4.6,14.2,5.7,20.2,10.3,5.4,4.7,7.7,7.4,2.2.8,3,0,.7-2.1,0-3h0Z"/>
  <path class="st0" d="M61.2,190c3,.4,6.1.3,9.1.3s6,0,9,0c5.7,0,11.5-.3,17.2-.5,11.5-.4,23-1,34.4-1.5,22.7-1.1,45.4-2.1,68.1-3.1s26.7-1.1,40.1-1.6,4.1-1.8,4-4-1.8-4.1-4-4c-23.5.9-47,1.9-70.4,3-22.7,1-45.5,2-68.2,3.3s-13.1.6-19.5,1.2-6.6.6-9.9,1-7,.6-10.4,1.3-1.8,1.5-1.7,2.5,1.1,1.9,2.3,2h0Z"/>
  <path class="st0" d="M405.1,71.6c-2.9,14.4-3.5,29.2-4.3,43.9s-1.3,30.4-1.5,45.7c-.3,14.4-.4,28.8-.4,43.3s0,23.8.2,35.7,0,9,.3,13.5.3,3.7.5,5.5,0,.4,0,.6c.2,1.6-.2-1.3,0,.3s0,.6.1.9.3,1.4.1.8,0,.5.1.9,0,.3,0,.5,0,.3,0,.5c.1,1-.1-.9,0,.3s.1.8.2,1.2.1,1.3.1.3c0,3.5,5.5,3.5,5.4,0,0,.8,0,.2,0-.2s.1-1.1.2-1.7c0,.2-.1,1.1,0,.1s0-.4,0-.6,0-.3,0-.5c0-.2,0-1.4,0-.7s0-.6.1-.9,0-.4,0-.5c0-.4,0-.9.1-1.3,0-.9,0-1.7.1-2.6.2-4.2,0-8.4,0-12.7-.2-11.5-.3-22.9-.3-34.4s0-28.3.2-42.4.6-30.4,1-45.6,1.4-29.4,1.5-44.2,0-3.4,0-5.1c0-2.5-4-3.2-4.5-.6h0Z"/>
  <path class="st0" d="M420.1,196.5c11.2-3.5,23.1-4.6,34.8-3.4s4.7.6,7.3,1.2,2.1.5,3.2.9.5.2.7.3c-.7-.3,0,0,.2.1.6.3,1.1.6,1.7,1-.6-.4.5.4.6.6s.6.7.2.1c0,0,.1.2.2.3.3.5.6,1,.8,1.5s.2.5.3.7c.2.4-.4-1-.1-.4s0,.2.1.4c.2.6.5,1.3.7,1.9.4,1.4.7,2.8,1,4.2s.2,1.5.4,2.2-.1-1,0,0,0,.3,0,.5c0,.4.1.9.1,1.3.4,3.7.5,7.5.5,11.3,0,8.1-.7,16.3-1.7,24.4s-.2,1.8,0,.7c0,.6-.2,1.1-.2,1.7-.1,1-.3,2.1-.5,3.1-.3,2-.7,4-1.1,6s-.7,3.4-1.1,5.1-.3,1.6-.4,2.4,0,.3,0,.4c0,.4-.1.9-.2,1.3v-.7c0,.3,0,.8,0,1.1-.3,2.1.5,4.4,2.8,5s4.1-.7,5-2.8,1.9-5.7,2.4-8.7,1.3-8.1,1.8-12.2c1-8.3,1.6-16.7,1.6-25.1s-.2-15.3-2.2-22.6-2-6.1-4.1-8.5c-3.6-4.1-9.2-5.2-14.3-5.9-14.2-1.9-28.4-.4-41.8,4.6s-2.6,2.1-2.1,3.8,2.2,2.6,3.8,2.1h0Z"/>
  <path class="st0" d="M365.8,209.8c-6.5-7.1-16.5-10.8-26.1-10.1s-19.5,5.9-24.9,14.7-6.3,19.1-3.4,28.4,10.6,17.4,20.3,20.8,22.7,2.4,31.5-4.2,2.7-3.5,1.4-5.5-3.7-2.8-5.5-1.4-3.5,2.3-5.5,3.2c.8-.4-.5.2-.7.3-.5.2-.9.3-1.4.5-1.1.3-2.2.6-3.2.8s-.9.2-1.3.2c1-.2-.7,0-.9,0-1.1,0-2.1.1-3.2,0s-2,0-3-.2-1-.1-.1,0c-.2,0-.4,0-.7-.1-.6,0-1.1-.2-1.7-.3-1-.2-2-.5-2.9-.8s-1.1-.4-1.6-.6-.4-.2-.6-.2c.8.3-.2,0-.3-.1-1.9-.9-3.8-2-5.4-3.2.6.5-.3-.3-.5-.4-.4-.4-.8-.7-1.2-1.1-.8-.7-1.5-1.5-2.1-2.4s.5.7-.1-.1-.3-.4-.4-.6c-.3-.4-.6-.8-.8-1.3-.6-.9-1.1-1.9-1.5-2.8,0,0-.4-1-.2-.5s-.2-.5-.2-.5c-.2-.4-.3-.8-.4-1.3-.3-1.1-.6-2.2-.9-3.3s-.2-1-.3-1.5-.1-1,0-.1c0-.2,0-.4,0-.7-.1-1.1-.2-2.3-.2-3.4s0-2,.2-3,0-.4,0-.7c0,.8,0,0,0-.2,0-.6.2-1.2.3-1.8.2-1,.5-2,.8-2.9s.3-.9.4-1.3.2-.5.3-.8c0-.2.1-.3.2-.5-.1.3-.2.4,0,.1.8-1.9,1.9-3.7,3.1-5.4s-.3.3.1-.2.4-.4.5-.7c.3-.3.6-.7.9-1,.8-.8,1.6-1.6,2.5-2.3s.2-.2,0,0c.2-.2.5-.3.7-.5.4-.3.8-.6,1.3-.8,1-.6,2-1.1,3-1.6s.4-.2.6-.3c-.5.2,0,0,.1,0,.5-.2,1.1-.4,1.6-.6,1-.4,2-.7,3.1-.9s1.2-.3,1.8-.4.4,0,.7-.1c1.1-.2-.6,0,.5,0s2.4-.2,3.6-.2c2.4,0,4.5.2,6.7.6,4.6.9,8.8,3,12.3,6.2s4.6-.9,2.8-2.8h0Z"/>
  <path class="st0" d="M541.7,220.3c2.1.6,4,1.2,5.7,2.2s1.5.9,2.2,1.6.8.7,1.1,1.1.5.6.3.4.3.4.4.5c.3.5.6,1,.9,1.5s.3.7.3.5.2.6.3.7c.5,1.4.7,2.8.9,4.2,0-.4,0,.6,0,.8,0,.4,0,.8,0,1.2,0,.6,0,1.2,0,1.8s0,1.7-.1,2.5,0,.5,0,.7c0,.4,0-.6,0-.5,0,.2,0,.5,0,.7-.2,1.5.1-.7,0,.2s0,.5-.1.7c-.2.9-.4,1.8-.6,2.6s-.2.8-.4,1.2-.1.4-.2.6,0,.2-.1.3c-.2.6.3-.7.1-.2-.4.8-.8,1.6-1.2,2.4s-.4.7-.7,1.1-.2.3-.4.5-.1.2-.2.3c-.4.6.4-.5.2-.2-.6.7-1.2,1.4-1.9,2.1s-.6.6-1,.9-.4.3-.6.5c-.5.4.7-.5,0,0s-1.7,1.2-2.6,1.6-.9.5-1.3.7c-.8.4.5-.2-.1,0s-.6.2-.9.3c-1.1.4-2.3.7-3.5,1s-1.2.2-1.7.3-.7.1-1.1.2c.8-.1,0,0-.4,0-1.5.2-2.9.2-4.4.2s-3.2,0-4.8-.2-1.7-.2-2.6-.3c.6,0-.4,0-.6,0-.5,0-1-.2-1.5-.2-1-.2-2-.4-3-.7s-.4-.2-.6-.2.9.4.1,0-.8-.4-1.2-.6-.7-.5-1.1-.7-.3-.3-.5-.4.7.6.4.3-.2-.2-.3-.3c-.7-.6-1.3-1.2-1.9-1.8s-.3-.4-.5-.5c-.4-.5.5.7.1.2s-.5-.7-.7-1.1c-.5-.8-.9-1.6-1.3-2.4s0-.4,0,0c0-.2-.2-.4-.2-.6-.2-.4-.3-.9-.4-1.3-.3-.9-.5-1.9-.7-2.8s0-.4-.1-.6c.1.4,0,.9,0,.2s0-1-.1-1.5c0-1,0-1.9,0-2.9s0-.4,0-.7c0-.7-.2.9,0,.2s.2-1,.3-1.5c.2-1,.5-1.9.8-2.8s.2-.4.2-.6c.2-.7-.4.8,0,.1s.5-1,.7-1.4c.5-.9,1.1-1.7,1.6-2.6s-.5.6,0,0,.3-.4.5-.6c.4-.4.8-.9,1.2-1.3s.7-.7,1.1-1,.5-.4.7-.6c.3-.3-.3.3-.3.2,0,0,.4-.3.4-.3,1-.7,2-1.3,3-1.9s1-.5,1.5-.8.4-.2.5-.2c0,0-.7.3-.3.1s.7-.3,1-.4c1.6-.6,2.8-1.3,4.2-2.2,2.8-1.8,1.5-5.7-1.6-6s-3.3-.1-5,.5-3,1.2-4.4,2c-2.4,1.3-4.7,3-6.6,4.9-3.5,3.5-6,8-7,12.8-1.8,8.7.5,19,7.7,24.8s4,2.8,6.4,3.6,6.5,1.3,9.7,1.6c6.2.5,12.8.2,18.6-2.1s9.1-4.9,12.2-9.2,3.9-7.3,4.5-11.3,0-11.7-2.5-16.7-6.9-7.5-12-9-2.3-.6-3.4-.8c-2.6-.6-3.8,3.3-1.1,4.1h0Z"/>
  <path class="st0" d="M153.8,360.8c-1.3,15-1.9,30-2.1,45.1-.2,16,0,32,.3,48.1.4,15.6.9,31.3,1.5,46.9.5,13.5,1.1,26.9,1.7,40.4s.5,10.9.8,16.4.3,8.6.6,12.9.7,3.4,1.7,4.6l-1-2.4c0,1.5.5,3,.7,4.4s.1.9,0,.1c0,.5.2.9.3,1.4.2.7.4,1.7,1,2.1l-.6-1.6c0,0,0,.1,0,.2,0,2.8,4.5,2.9,4.4,0,0,0,0-.1,0-.2l-.6,1.6c.6-.5.7-1.4.9-2.1s.2-.7.2-1.1c0-.5,0-.5,0,.1,0-.3,0-.6.1-.9,0-.1,0-.3,0-.4.1-1.2.4-2.6.4-3.8l-.5,1.7c.7-1,1-2.9,1-4s0-1.9-.1-2.9c0-2.2-.2-4.4-.3-6.6-.2-5.2-.5-10.3-.7-15.5-.6-13.1-1.2-26.2-1.8-39.3s-1.2-30.7-1.7-46.1c-.5-16.2-.8-32.3-1-48.5-.2-15.1-.1-30.3,0-45.4s0-3.5,0-5.2-1.2-2.6-2.6-2.6-2.5,1.2-2.6,2.6h0Z"/>
  <path class="st0" d="M194.4,362.9c1.2-.3,2.5-.5,3.7-.7s.7-.1,1.1-.2c-.6,0,.3,0,.5,0,.7,0,1.5-.2,2.2-.2,3.2-.3,6.5-.5,9.7-.6,7.6-.2,15.1.1,22.7.9s2,.2,3,.4.8.1.2,0c.4,0,.8.1,1.2.2s.4,0,.6,0c-.6,0,.3,0,.4,0,2,.3,4,.6,6,1,3.9.7,7.8,1.6,11.7,2.7s3.8,1.2,5.7,1.8,1.7.6,2.5,1,.8.3,1.3.5.4.2.6.2c-.7-.3.3.1.4.2,3.3,1.5,6.5,3.2,9.5,5.2s1.4.9,2,1.4.7.5,0,0c.1.1.3.2.4.3.4.3.8.6,1.1.9,1.3,1.1,2.5,2.2,3.6,3.5,3.4,3.8,6.3,8.3,8.9,12.7s2.5,4.7,3.3,6.7,1.6,4.3,2.3,6.4,1.1,4.2,1.5,6.4.2,1,.2,1.5c-.1-.9,0,.5,0,.8.1,1.1.2,2.1.2,3.2,0,1.9,0,3.9,0,5.8s-.1,1.8-.2,2.6-.2,1.5,0,.5c0,.5-.2,1-.2,1.6-.6,3.4-1.5,6.7-2.7,10s-.6,1.5-.9,2.3-.2,0,.1-.2c0,0-.2.4-.2.5-.2.4-.4.8-.6,1.3-.6,1.4-1.3,2.7-2.1,4.1-1.3,2.4-2.8,4.8-4.3,7s-2.6,3.6-3.9,5.4.6-.8,0,0-.2.3-.3.4c-.3.4-.6.7-.8,1-.5.7-1.1,1.3-1.6,2-1.1,1.3-2.3,2.6-3.4,3.8-2.4,2.5-4.9,4.8-7.5,7.1s-2.7,2.3-4.1,3.4-1,.8-.3.2c-.4.3-.7.6-1.1.8-.7.6-1.5,1.1-2.2,1.6-5.8,4.2-11.9,7.8-18.2,11.1s-6.5,3.3-9.8,4.8-1.6.7-2.4,1-.7.3-1.1.5c-.9.4.8-.4,0,0s-.5.2-.8.3c-1.7.7-3.4,1.4-5.1,2.1-13.8,5.3-28.2,9.3-42.7,12.4-7,1.5-14.1,2.8-21.2,3.9s-3.4.5-5.2.8-1.6.2-2.4.3-1.5.2-.8.1-.1,0-.2,0c-.3,0-.5,0-.8.1-3.3.4-6.6.8-9.9,1.2-11.4,1.2-22.7,1.9-34.1,2.5-4.2.2-8.4.3-12.6.5s-3.3.1-4.9.3-1.4.1-2,.2-.7.1-1.1.1c1.4,0,.9,0,.6,0-.4,0-.9.1-1.3.2s-.6,0-.9.1,1.1-.1.4,0-.2,0-.4,0c-.2,0-.4,0-.7,0-.9.1-1.9.1-2.6.6l1.5-.4c-.1,0-.2,0-.3,0-3.8-.1-3.8,5.8,0,5.9s.2,0,.3,0l-1.5-.4c.6.5,1.7.5,2.4.7s2.1.4,3.2.5l-1.8-.5c1.7.7,4,.8,5.9.9s3.4.1,5.1.1c4.4,0,8.7,0,13.1-.2,11.4-.5,22.8-1.4,34.2-2.7,14-1.6,28-3.8,41.8-6.9s28.3-7.2,41.9-12.5c13.5-5.3,26.5-11.7,38.3-20.2s19.9-16.8,27.4-27.6c7.4-10.7,12.7-23.1,13.1-36.2s-1.9-17.8-5.6-25.9-4.8-9.3-7.9-13.5-5.4-7.3-8.8-10.3c-11.4-10.1-27-14.6-41.8-16.8s-29.7-2.5-44.3-.5-5.1.8-7.6,1.4-1.9,5.6,1.4,5h0Z"/>
  <path class="st0" d="M309.3,519c-5.6,1.5-10.1,5.2-13.5,9.7s-5.8,10.8-6.4,16.9.7,12.5,3.9,17.8,9.2,10.1,15.7,12.4c12.5,4.3,27,.5,36.9-7.8s8.3-9.1,9.8-14.9.6-13.8-2.7-19.7-7.6-9.2-12.9-11.7-5.1-2.2-7.8-2.8-2.8-.6-4.2-.8-3-.3-4.7.5-.4.2-.5.2-.4.3,0,0c.7-.4-.5.2-.5.2-.4.2-.8.4-1.2.6-2.1,1.1-1.3,4,.6,4.7s.4.2.6.2-.6-.3,0,0,1,.7.5.2-.2-.1,0,0,.4.2.6.3c1,.5,1.8.7,2.8.8s.5,0,.7,0c.6,0-1-.2,0,0,2.2.4,4.4.9,6.5,1.6s1,.4,1.5.6c.9.3-.5-.3,0,0s.5.2.8.4c1.1.5,2.2,1.1,3.2,1.7s1,.7,1.5,1,.7.7.3.2.4.3.5.4c.9.8,1.8,1.7,2.6,2.6s.4.5.6.7c-.4-.5-.2-.3,0,0,.4.6.8,1.1,1.1,1.7s.6,1.1.8,1.6.2.3.2.5c0,0-.3-.7-.1-.3s.3.7.4,1.1c.4,1.3.7,2.7,1,4-.2-1,0,.1,0,.4,0,.4,0,.8,0,1.2,0,.7,0,1.5,0,2.2s0,.6,0,.9c0,.9.1-.6,0,.1s-.2,1.2-.4,1.8-.3,1.2-.5,1.8-.2.5-.3.8c-.2.5.1,0,0-.2,0,0-.2.4-.2.5-.5,1.2-1.2,2.3-1.9,3.3s-.4.5-.6.8c-.5.7.1-.1,0,0-.5.5-.9,1.1-1.4,1.6-.9,1-1.9,1.9-2.9,2.7s-.5.4-.7.5c.6-.5,0,0-.2.2-.6.4-1.2.8-1.8,1.2-1.1.7-2.3,1.4-3.5,2s-.6.3-.9.5-1.1.5-.6.3-.4.1-.5.2c-.4.1-.8.3-1.1.4-1.3.5-2.7.9-4.1,1.2s-1.3.3-1.9.4-.7.1-1,.2.3,0,.3,0c-.3,0-.5,0-.8,0-1.4.1-2.8.2-4.2.2s-1.3,0-2-.1-.7,0-1-.1.3,0,.3,0c-.2,0-.5,0-.7-.1-1.3-.2-2.6-.6-3.9-1s-1.3-.5-2-.7c.7.3.2,0-.1,0s-.7-.4-1.1-.5c-1.3-.7-2.5-1.5-3.7-2.3.6.5,0,0-.3-.3s-.5-.5-.8-.7c-.5-.5-1-1-1.5-1.5s-.5-.5-.7-.8-.2-.2-.3-.3c0,0,.4.6.2.2-.4-.6-.8-1.2-1.2-1.8s-.6-1.1-.9-1.6-.3-.6-.4-.9-.3-.5,0,0,0-.2-.1-.3c-.5-1.2-.9-2.5-1.1-3.8s-.2-1.2-.4-1.8c-.2-.9,0,.5,0-.2s0-.7,0-1c-.1-1.3-.1-2.6,0-3.9s.1-1.3.2-2,0,.3,0,.3c0-.1,0-.3,0-.4,0-.4.1-.7.2-1.1.2-1.3.6-2.5,1-3.8s.4-1.1.6-1.7.1-.3.2-.5c0,0-.3.6-.1.2s.1-.3.2-.4c-.4.9.7-1.8.4-.9s.2-.5.3-.6c.1-.2.2-.5.4-.7.3-.6.6-1.2,1-1.8s.6-1,.9-1.5.6-.8.4-.5.3-.4.4-.5c.8-.9,1.6-1.8,2.5-2.6s.5-.4.7-.6,0,0-.1,0c.1-.1.3-.2.4-.3.5-.3,1-.7,1.5-1s1-.6,1.6-.8.5-.2.7-.3c-.5.2.4-.1.5-.2,1.4-.5,2.4-1.9,1.9-3.4s-2-2.3-3.4-1.9h0Z"/>
  <path class="st0" d="M402.8,457.3c-1.8,24.2-2.6,48.5-2.5,72.8s.6,36.5,1.1,54.8-.2,7.9.7,11.6.5,1.5.2.4c0,.4,0,.8,0,1.2,0,.9.1,1.9.3,2.8s.5,1.2.2.4c.1.4.2,1.1.3,1.5s.4,1.2.6,1.8c.7,1.9,3.2,1.9,3.9,0s.4-1,.6-1.6.1-.5.1-.8,0-.8.1-1c-.1.4,0,.5,0,0,.2-.8.3-1.6.3-2.4s0-.7,0-1,0-.3,0-.5.1-.9,0-.3.1-.4.2-.6c.1-.6.2-1.2.3-1.9s.1-1.5.2-2.3c0-1.7,0-3.3-.1-5-.2-7.9-.4-15.9-.6-23.8-.5-21.3-.8-42.5-.7-63.8s.2-28.4.6-42.6-1.4-3-3-3-2.9,1.4-3,3h0Z"/>
  <path class="st0" d="M416.9,459.6c2.8-.2,5.6-.2,8.4-.4s6.2-.3,9.3-.2,6.6.3,9.8.6,1.6.2,2.4.3.3,0,.5,0c.9.1-.9-.1,0,0s.9.1,1.3.2c1.7.3,3.3.6,5,.9,3.3.7,6.6,1.5,9.7,2.6s3.1,1.1,4.7,1.7,1.2.4.3.1c.4.1.7.3,1.1.5.8.4,1.6.7,2.4,1.1,2.9,1.4,5.5,3.1,8.1,5s-.2-.2-.2-.2c.2.1.4.3.5.4.3.2.6.5.9.7.6.5,1.1,1,1.7,1.5,1.1,1.1,2.2,2.2,3.2,3.5s1.1,1.2.2.3c.2.2.4.5.6.8.5.6.9,1.3,1.3,2,.9,1.4,1.6,2.8,2.3,4.2s-.2-.6,0,.2.3.7.4,1.1c.3.8.5,1.6.8,2.4.5,1.6.8,3.3,1.1,4.9s-.1-1.1,0-.2,0,.4,0,.6c0,.4,0,.9.1,1.3,0,.9.1,1.9.1,2.8,0,1.9,0,3.9-.3,5.8s0,.5,0,.7c-.1,1,.1-.7,0,0s-.1.9-.2,1.4c-.2,1.1-.4,2.3-.7,3.4-.5,2-1,4-1.7,5.9s-.3.8-.4,1.1-.3.6-.3.7c0-.2.3-.8.1-.3-.4.9-.8,1.7-1.2,2.6-.8,1.5-1.7,2.9-2.7,4.2s-.3.4-.4.6c-.4.6.2-.2.2-.3-.2.3-.5.6-.8.9-.6.7-1.2,1.3-1.8,2-1.1,1.1-2.3,2.2-3.5,3.2s-.4.3-.6.4c0,0,.8-.6.3-.2s-.6.5-1,.7c-.7.5-1.4,1-2.2,1.5-1.3.8-2.7,1.6-4.1,2.3s-1.4.7-2.1,1-.7.3-1.1.5c-.8.3.8-.3.3-.1s-.5.2-.8.3c-1.4.6-2.9,1.1-4.4,1.6-3,.9-6,1.7-9,2.2s-1.4.3-2.2.4-.7.1-1.1.2-.3,0-.4,0c-.8.1,1.2-.1.2,0-1.4.2-2.8.3-4.2.4-2.5.3-5.1.6-7.6.5s-4.1,0-6.1,0-2.1,0-3,.2h1.8c-1-.2-2.6-.4-3.6-.1h1.6c0,0-.1,0-.2,0-.9-.1-1.1-.1-.5,0,.4,0,.5,0,.3,0,0,0-.2,0-.3,0-.5,0-.3-.2.2.1s1.2,1.2,1.2,2.2-.3,1.3-.7,1.8c.3-.3-.6.4-.4.3.7-.5,1.5-1.4,1.3-2.3h0c-.4.8-.9,1.5-1.3,2.3-1,.4-.7.3-.5.2,1.4-.5,2.3-1.8,1.9-3.3s-1.9-2.3-3.3-1.9-.5.2-.8.3l3.2.4h0c-.6-.7-1.8-.9-2.6-.7-1.9.5-3,2.7-1.9,4.5s1.7,1.7,2.8,2l-1.3-.8c.7.7,1.9,1.1,2.9,1.4s.6.3-.4-.2c.3.1.6.3.9.4s.4.1.6.2.4.1.6.2.1,0,.2,0c0,0,.2,0,.2,0,1.2.2,1.3.2.2,0,.8.3,2,.3,2.8.4,1.5.2,2.9.3,4.4.3,2.7,0,5.5.1,8.2,0s6.8-.8,10.1-1.5c14.1-2.8,27.9-9.6,35.9-22s6.8-16.3,7.3-25-1.1-15.7-4.8-22.5c-6.9-12.7-20.4-20.1-33.9-23.8s-14.5-2.9-21.8-3.3-13.7,0-20.2,1.6-2.7.8-4,1.2c-2.3.8-2.1,4.8.6,4.6h0Z"/>
  <path class="st0" d="M127.8,652.2c-1.8,20.3-2.7,40.5-3,60.9s0,37.2.6,55.8,1.3,32.2,2.3,48.3,1.7,25.5,2.7,38.3.8,9.9,1.2,14.8.5,4.7,1.1,6.9-.1-.9,0,0,0,.4,0,.6c0,.5.1.9.2,1.4s.1.8.2,1.2,0,.4,0,.6.2,1.7,0,.3c0,.4,0,.7.2,1.1.3.9.8,2.3,1.5,3l-.8-1.8h0c.1,1.5,1.1,2.7,2.6,2.7s2.7-1.2,2.6-2.6h0c-.1.3-.2.7-.4,1.2,1.1-1.6.9-4,.8-5.9s0-3.8,0-5.7-.3-4.4-.4-6.6-.4-5-.6-7.4c-1-12.3-2-24.7-2.8-37-1-15.7-1.9-31.4-2.5-47.1-.7-18.3-1.2-36.7-1.3-55s0-40.1.2-60.2,0-5.1.1-7.7-4.3-2.9-4.6,0h0Z"/>
  <path class="st0" d="M147.9,684.7c.8,1.9,1.6,3.8,2.4,5.7s.8,2.1,1.3,3.1.2.5.3.8.6,1.4.3.8c.2.6.5,1.2.7,1.8.4,1.1.9,2.3,1.3,3.4s.2.6.3.9.2.6.4.9-.2-.5,0,0c.3.6.5,1.2.8,1.8,1.1,2.6,2.1,5.1,3.2,7.7s1.3,3,1.9,4.5.5,1.3.8,1.9.1.3.2.5c.2.6-.5-1.2,0,.2s.4.9.6,1.4c1.2,2.8,2.5,5.6,3.8,8.4,2.6,5.8,5.3,11.7,8,17.5,5.7,12.2,11.7,24.3,17.9,36.3,5.9,11.4,12,22.7,18.6,33.7s11.7,18.8,18.6,27.4,10,12,16.7,15.4,5.7,2.4,8.7,2.1,6.7-2,9-4.8,4.8-7.8,6.4-12.1,3.3-11,4.5-16.6c3.4-16,5.2-32.3,6.9-48.5s3.6-40.3,5-60.5c.4-5.3.7-10.5,1.1-15.8s-2.2-4.6-4.5-4.5-4.3,2-4.5,4.5c-1.4,20.5-2.9,41.1-4.6,61.6s-1.7,18.3-2.7,27.4-.5,4.2-.7,6.3-.2,2-.4,3-.1.9-.2,1.3-.2,1.9-.1.8c-.5,3.8-1.1,7.6-1.7,11.4-1.1,6.5-2.3,12.9-3.9,19.2s-1.4,5.1-2.3,7.6-.8,2.1-1.2,3.2.5-1,0-.1-.2.5-.3.7c-.2.5-.4.9-.7,1.4-.4.8-.9,1.7-1.4,2.4s-.4.7-.7,1-.2.3-.4.5.8-1,.4-.5-.1.2-.2.3c-.5.6-1,1.1-1.5,1.6-.8.7,1-.7,0,0s-.5.3-.8.5-.2.1-.3.2c-.4.2,1.2-.4.5-.2s-.5.2-.8.2-.5,0-.7.1c1.4-.3.9,0,.3,0s-.5,0-.8,0-1.3-.1-.3,0,0,0-.3,0-.6-.1-.9-.2-.6-.2-.8-.3-.3-.1-.4-.2c-.8-.3,1,.5.4.2s-1.2-.6-1.8-.9-1.2-.7-1.8-1.2-.6-.4-.9-.6-.3-.2-.5-.3c-.5-.3.6.4.5.4-.1,0-.2-.2-.3-.3-2.9-2.4-5.5-5-8-7.8s-2.9-3.4-4.2-5.1-.8-1-.3-.3,0-.1-.2-.3c-.4-.5-.8-1-1.2-1.6-.7-1-1.4-1.9-2.1-2.9-3.2-4.4-6.1-8.9-9-13.5-6.6-10.5-12.7-21.3-18.5-32.2-6.3-11.7-12.3-23.5-18.1-35.4-5.5-11.3-11-22.5-16.4-33.9s-9.2-18.3-13.8-27.5-1.8-3.5-2.6-5.3-5-.6-4,1.7h0Z"/>
  <path class="st0" d="M340.8,799.1c-1.1,6.2-1.6,12.5-2.2,18.7s-1,10.9-1.4,16.3-.6,8.5-.8,12.8-.1,3.2-.2,4.8,0,1.6.1,2.4.7,1.8,1.1,2.7.3.7,0,0c.2.4.3.9.5,1.3s.3.6.5.9c.8,1.1,1.7,1.9,3.2,1.7h-1.1,0c1.1.4,2.3-.4,2.6-1.4s-.4-2.2-1.5-2.6h0c.4.3.8.6,1.2.9-.5-.9-.2-.3,0-.1-.1-.2.2.7.1.3s0,.5,0,.3,0-.2,0-.3c0-.1,0-.3,0-.4,0-.6-.1.6,0,.2s.2-1.1.2-1.6l-.4,1.5c.2-.4.3-.7.4-1.1s.3-.7,0-.2,0,0,.1-.2c.4-.8.7-1.4.7-2.4s0-2.2,0-3.3c0-3,.1-6,.3-8.9.4-8.2.9-16.4,1.3-24.6s.6-11.2.3-16.9-1-2.5-2.3-2.6-2.7.6-3,1.9h0Z"/>
  <path class="st0" d="M510.6,774.4c4.8-6,5.6-14.5,5.7-21.9.2-9.9-2.6-20.4-7.6-28.9s-14.6-16.9-25.4-20.2-21.8-3.9-32.6-1.9-21,6.9-29,14.4-14.8,19.6-17.4,31.4-2.5,26.6,2.9,38.8c4.1,9.4,11.4,17.3,20.3,22.5,7.5,4.3,16.5,7,25.2,6.1s6.9-1.1,10.3-1.9,7.9-2,11.7-3.2c6.2-2,12.5-4.5,17.9-8.3s3.9-2.9,5.4-4.7l-7.2-3c-.4,20.6-.9,41.1-1.3,61.7-.2,9.2-.2,18.5-.7,27.7s-.2,3.5-.4,5.2-.2,1.7-.3,2.5,0,.8-.1,1.2c-.1.8,0,0,0-.1,0,.3,0,.6-.1.8-.5,3.4-1.2,6.9-2.2,10.2s-1,3.2-1.7,4.8-.3.8,0-.1c0,.2-.2.4-.3.6-.2.3-.3.7-.5,1-.4.8-.7,1.5-1.2,2.2s-.8,1.3-1.2,2-.4.6-.6.9-1.1,1.4-.3.5c-1,1.2-2,2.4-3.2,3.4s-.5.5-.8.7-.3.3-.5.4c0,0,.8-.6.1-.1s-1.3.9-2.1,1.4-1.3.7-1.9,1-1.3.6-.4.2c-.6.2-1.2.5-1.8.6-1,.3-2,.6-3,.8s-.4,0-.6.1-1,.1-.4,0-.2,0-.2,0c-.4,0-.8,0-1.2,0-1,0-1.9,0-2.9,0s-1.1,0-1.6-.1-.5,0-.8,0c.5,0,.3,0,0,0-2.2-.4-4.4-.9-6.6-1.6s-4-1.4-5.4-2.1c-4-1.8-7.9-4-11.6-6.5s-1.6-1-2.3-1.6-.7-.5-1.1-.8c-.7-.5-.2-.1,0,0-.2-.2-.5-.4-.7-.6-1.5-1.2-2.8-2.6-4.1-4.1s-.5-.7,0,0c-.1-.2-.3-.4-.4-.6-.2-.3-.5-.7-.7-1s-.4-.7-.6-1.1-.2-.4-.3-.6c.2.5.1.3,0,0s-.3-.8-.4-1.2-.3-1.7-.2-.6c0-1-.1-2,0-2.9-.1.9,0-.2.2-.5.1-.5.3-1,.4-1.4s0,0,0,.2c.1-.2.2-.5.3-.7.3-.5.5-1,.8-1.5s.5-.8.7-1.1.3-.4.5-.6c-.1.1-.5.6,0,0s1.4-1.6,2.1-2.4c3.1-3.2,6.6-6.1,10.1-8.9s1.7-1.4,2.5-2,1-.8,1.4-1.1.5-.4.7-.6c-.3.3.1,0,.2-.2,1.9-1.5,3.9-3,5.9-4.4,3.8-2.7,7.7-5.3,11.6-7.8s4-2.5,6.1-3.7,2.8-4,1.6-5.9-3.8-2.8-5.9-1.6c-8.8,5.2-17.2,10.9-25.2,17.1s-7.8,6.2-11.5,9.5-6.7,6.2-8.9,10.2-3.2,9.2-1.8,13.9,4.1,7.9,7.3,10.9,7.1,5.5,10.9,7.7,8.7,4.7,13.3,6.4c9.1,3.3,19.1,4,28.1-.2,6.5-3.1,11.6-8.8,14.8-15.2,7.2-14.7,6.8-31.7,7.1-47.6.4-21.6.8-43.1,1.3-64.7s.1-5.3.2-8-1.1-3.2-2.6-3.9-3.6-.4-4.6.9-1.3,1.5-2,2.1-.4.3-.5.5-.8.6-.3.2-.3.2-.4.3c-.3.2-.5.4-.8.5-2.3,1.5-4.7,2.8-7.2,4s-.7.3-1.1.5-1,.5-.7.3-.1,0-.2,0c-.2,0-.5.2-.7.3-.4.2-.8.3-1.2.5-1.7.6-3.3,1.2-5,1.8-3.7,1.2-7.4,2.2-11.1,3.1s-4,.9-5.9,1.2-1.3.2-1.9.3,1.2-.1.3,0-.5,0-.7,0c-1.8.2-3.6.2-5.4,0s-.9,0-1.4-.1c-.7,0-.2,0,.3,0-.3,0-.6,0-.9-.1-.9-.2-1.9-.3-2.8-.6-2-.5-4-1.1-5.9-1.9s-.5-.3-.7-.3.8.4.5.2-.2,0-.3-.1c-.5-.2-1-.5-1.5-.7-1-.5-1.9-1-2.9-1.5s-1.8-1.1-2.7-1.7-.9-.6-1.3-.9-.5-.4-.7-.5c-.4-.3.4.3.3.3-.1-.1-.3-.2-.4-.3-1.8-1.4-3.4-3-5-4.6s-2.4-2.5-2.3-2.7.5.7.2.3-.2-.2-.2-.3c-.2-.3-.4-.5-.6-.8-.3-.5-.7-1-1-1.5-1.4-2.1-2.6-4.3-3.6-6.6s.3.7,0,0-.2-.5-.3-.8c-.2-.6-.5-1.3-.7-1.9-.4-1.3-.8-2.6-1.1-3.9s-.6-2.7-.8-4-.1-.7-.2-1.1c.1.7,0,.2,0-.2,0-.8-.2-1.5-.2-2.3-.2-3.1-.2-6.2,0-9.4s.1-1.6.2-2.4,0-.8.1-1.1c-.1.8,0-.6.1-.8.2-1.6.5-3.1.9-4.7.7-3,1.5-6,2.6-8.9s.5-1.2.7-1.8c-.3.8,0,0,.2-.4s.3-.7.5-1c.6-1.3,1.3-2.5,2-3.8s1.4-2.3,2.1-3.4.7-1.1,1.1-1.6.4-.6.6-.8-.2.2-.2.2c.1-.2.2-.3.4-.5,1.6-2,3.4-3.9,5.3-5.6s1.9-1.7,2.9-2.5-.5.4,0,0,.5-.4.8-.6c.5-.4,1-.7,1.5-1.1,2.1-1.4,4.3-2.7,6.6-3.8s1-.5,1.5-.7,1.1-.5.5-.2.4-.2.6-.2c1.2-.5,2.4-.9,3.6-1.3,2.4-.8,4.8-1.4,7.2-1.8s1.2-.2,1.8-.3.6,0,.8-.1c.5,0-.4,0-.4,0,.2,0,.5,0,.7,0,1.2-.1,2.4-.3,3.6-.3,2.5-.2,5-.2,7.5,0s2.5.2,3.8.3.6,0,.8,0c1,.1-.5,0,.2,0s1.3.2,2,.3c2.5.4,4.9,1,7.3,1.7s2.4.7,3.6,1.2.6.3,1,.4c-.6-.2-.2,0,.2,0,.6.3,1.2.6,1.8.9,1.1.6,2.3,1.2,3.3,1.9s.9.6,1.4,1,.5.4.8.6c-.6-.5,0,0,.2.2,1.9,1.5,3.6,3.2,5.2,5.1s.4.5.6.7.6.8.3.4.3.4.4.5c.2.3.4.5.6.8.7,1,1.4,2,2,3.1s1.2,2,1.7,3.1.5,1,.8,1.6.2.5.3.7.1.2.2.4c.4.8-.2-.5,0,0,.3.8.6,1.5.9,2.2-.2-.6-.1-.2,0,.1s.2.6.3.9c.4,1.1.8,2.3,1.1,3.4.6,2.2,1.2,4.4,1.6,6.7s.2,1.1.3,1.6,0,.7,0,.1c0,.3,0,.7.1,1,0,.5,0,1,.1,1.5.2,1.7.1.9,0,.5,0,.1,0,.2,0,.4,0,.3,0,.6,0,.8.2,2.1.3,4.2.2,6.2s-.1,1.9-.2,2.8,0,.4,0,.6c0-.7,0,0,0,.2,0,.5-.1.9-.2,1.4-.3,1.6-.7,3.1-1.3,4.6s-.1.3-.2.5c-.2.4.2-.5,0,0s-.3.6-.4.8c-.3.6-.6,1.1-1,1.7-1.6,2.3,2.1,5.2,3.9,3h0Z"/>
  <path class="st0" d="M562.7,688.2c-1.6,11.2-2,22.6-2.3,34-.4,11.7-.5,23.4-.5,35.1,0,23.3.5,46.5,1.2,69.8.4,12.2.8,24.4,1.3,36.6.1,3.8,5.2,5.3,7.2,1.9,4.4-7.5,9.1-14.9,14-22.2s5.4-7.6,8.2-11.3.3-.3.4-.5c.4-.6-.3.3.2-.2s.7-.9,1-1.3c.7-.9,1.5-1.9,2.2-2.8,1.4-1.8,2.9-3.5,4.4-5.2,2.9-3.3,5.9-6.4,9.1-9.4s3.1-2.8,4.7-4,.6-.4.2-.1c.2-.2.5-.3.7-.5.5-.3.9-.6,1.4-.9s.9-.5,1.3-.7.9-.4.5-.2.6-.2.7-.2c.2,0,1.6-.3.9-.3.2,0,1.6,0,.9,0,.3,0,1.6.6.8.2.2.1.4.2.6.3s.8.6.4.3.1.2.2.2c.2.2.3.3.5.5.4.4-.3-.5,0,0s.3.4.4.6c.3.4.5.8.7,1.2s.2.4.3.6c.2.4-.2-.5,0,.2,1.7,4.6,2.7,9.4,3.6,14.2s1.6,10.8,1.8,16.7,0,11.7-.7,17.5,2.1,4.4,4.3,4.3,4-1.9,4.3-4.3c1.1-11.2.7-22.5-1.2-33.6-.9-5.2-2-10.4-3.7-15.4s-4.2-9.4-9.3-11-11.1,1.6-15.3,5c-3.5,2.8-6.7,5.9-9.7,9.1-6.8,7.1-12.8,15-18.5,23-6.1,8.6-11.6,17.5-16.9,26.6l7.2,1.9c-1-22.2-1.8-44.5-2.4-66.7s-.7-46.7-.6-70.1.6-25.4.2-38-.9-2.2-2.1-2.3-2.4.5-2.6,1.7h0Z"/>
  <path class="st0" d="M661.7,817.7c12.8-1.4,25.4-3.5,38.2-4.8,12.8-1.3,25.6-2.1,38.5-2.5s7-.2,10.6-.2,3.6,0,5.4,0,4.1-.6,6.1-1.5,1.8-4,0-4.9-3.5-1.4-5.3-1.5-3.3,0-4.9,0c-3.2,0-6.4,0-9.6.2-6.5.2-12.9.5-19.4.9-13,.8-26,2.3-38.9,4.1s-14.4,2.1-21.5,3.9-2.5,2-2.3,3.5,1.5,3,3.2,2.8h0Z"/>
  <path class="st0" d="M704.5,775.3c-1.3,4.8-1.9,9.8-2.3,14.7s-.7,9.6-1.1,14.4c-.7,9.7-1.4,19.3-2,29s-2.2,17.2,1.8,24.5,11.1,9.6,18.1,10.1c3.9.3,7.9-.2,11.8-.8s4.1-.6,6.1-.9,1.1-.2,1.6-.2.5,0,.8-.1c.8-.1-.1,0,.3,0,1.2-.2,2.4-.3,3.6-.4,2.2-.2,4.3-1.8,4.2-4.2s-1.9-4.5-4.2-4.2c-4.1.5-8.1,1.1-12.1,1.7s-1.7.3-2.6.4.5,0-.3,0-.9.1-1.4.2c-1.6.2-3.1.3-4.7.4s-2.9,0-4.4-.2.7.1-.2,0-.7-.1-1-.2c-.7-.2-1.3-.3-2-.6s-1.2-.4-.6-.2-.5-.2-.6-.3c-.7-.3-1.4-.7-2-1.2s-.5-.4-.8-.6c-.5-.3.5.4,0,0s-.3-.2-.4-.3c-.3-.3-.6-.5-.9-.8s-.2-.3-.4-.4c-.5-.5.1.2-.1-.1-.4-.6-.8-1.3-1.1-2,.4.7,0-.2-.2-.5-.2-.5-.3-.9-.4-1.4s-.2-.8-.3-1.2-.1-1.1,0-.4c0-.9-.2-1.9-.2-2.8-.1-4,.3-8.1.5-12.1.5-9.2,1-18.5,1.5-27.7s.5-10.4.8-15.6.3-10.7-.4-16-3.9-2-4.5,0h0Z"/>
  <path class="st0" d="M363.7,772.7c.1-.2.2-.4.4-.5,0,0-.3.4,0,0s.8-.9,1.1-1.4c.5-.9.9-1.9,1.1-2.9.4-2.1.5-4.2.2-6.3-.6-3.7-2.4-7.2-4.8-10-5.3-6.2-14.8-8.9-22.5-6.4s-14.4,10.8-13.7,19.7,6.8,16.3,15.6,18.2c4.9,1.1,9.9.5,14.4-1.6s4-2.2,5.6-3.7,3.6-3.9,3.7-6.6-3.2-4.6-5.6-3.2-1.5.9-2,1.6-.9,1.1-1.5,1.7-.5.5-.8.8-.7.6-.2.2c-.6.5-1.3.9-2,1.3s-.7.4-1.1.6-.3.1-.5.2c0,0,.6-.2.2,0-.8.3-1.5.6-2.3.8s-.8.2-1.2.3-1,.1-.3,0c-.8,0-1.7.1-2.5,0s-.9,0-1.3,0,0,0,.2,0c-.2,0-.4,0-.6,0-.9-.2-1.8-.4-2.6-.7s-.4-.1-.6-.2c.2,0,.6.3-.1,0s-.7-.4-1.1-.6-.6-.3-.9-.5-.3-.2-.5-.3c.3.2.4.4,0,0-.5-.5-1-1-1.5-1.5s-.2-.3-.3-.4c0,.1.5.6,0,0s-.4-.6-.6-1c-.4-.6-.7-1.3-1-2,.3.6,0,0-.1-.3-.2-.4-.3-.9-.4-1.4s-.2-.8-.3-1.2,0,.1,0,.2c0-.2,0-.4,0-.5,0-.9,0-1.7,0-2.5s0,0,0,.2c0-.2,0-.5.1-.7,0-.4.2-.7.3-1.1s.2-.7.4-1.1c.3-.8.1-.3,0-.1.1-.2.2-.5.4-.7.2-.4.4-.8.7-1.1s.6-.9.4-.6,0-.1.1-.1c.2-.2.3-.4.5-.5.3-.3.5-.6.8-.9s.6-.5.9-.8c-.5.5,0,0,.3-.2.6-.4,1.3-.8,2-1.2s-.5.1.3-.1.7-.3,1.1-.4.7-.2,1.1-.3.3,0,.5-.1.8-.1.3,0,.7,0,.8,0c.3,0,.7,0,1,0s.7,0,1,0,1.5.2.6,0c.8.1,1.5.3,2.2.5s.8.2,1.2.4.3.1.5.2c.6.2-.5-.2,0,0s1.4.7,2,1.1.6.4.9.6c.6.4.1,0,0,0,.2.1.3.3.5.4.6.5,1.2,1.1,1.7,1.8s.2.3.3.4c-.5-.6,0,0,0,.1.2.3.4.6.6.9s.4.7.6,1.1.1.3.2.4c.3.5-.2-.6,0,0,.2.7.5,1.5.7,2.2s.2.8.2,1.2c-.2-.9,0,.1,0,.5,0,.8,0,1.5,0,2.3s0,.3,0,.5c0-.3,0-.5,0-.1s-.2,1.2-.3,1.9,0,.7,0,1c0,.5.2-.5,0,0s-.2.5-.2.7c-.5,1.4.5,3,1.7,3.5s2.8,0,3.7-1.2Z"/>
</svg>